<svg width="300" height="300" viewBox="0 0 300 300" fill="none" xmlns="http://www.w3.org/2000/svg">
<g id="Logo Icon - Full Color">
<g id="Logo">
<g id="icon">
<path id="Mask" fill-rule="evenodd" clip-rule="evenodd" d="M299.81 76.5947L299.821 77.8845V221.885C299.821 264.531 265.593 299.185 223.11 299.874L221.821 299.885H77.8206C36.5359 299.885 2.74079 267.807 0 227.217L0 72.5518C2.64544 33.3739 34.2221 2.12668 73.54 0H226.101C266.762 2.19935 299.144 35.5433 299.81 76.5947Z" fill="#333333"/>
<path id="Clip 5" fill-rule="evenodd" clip-rule="evenodd" d="M269.821 67.6065L173.821 233.885L125.821 150.746L149.821 109.178L173.821 150.746L221.821 67.6065H269.821Z" fill="#F1EDA0"/>
<path id="Clip 8" fill-rule="evenodd" clip-rule="evenodd" d="M77.8206 67.6065L125.821 150.746L101.821 192.317L29.8206 67.6065H77.8206Z" fill="#F1EDA0"/>
<path id="Clip 11" fill-rule="evenodd" clip-rule="evenodd" d="M173.821 67.6065L149.821 109.178L125.821 67.6065H173.821Z" fill="#F1EDA0"/>
</g>
</g>
</g>
</svg>
